<svg xmlns:dc="http://purl.org/dc/elements/1.1/" xmlns:cc="http://creativecommons.org/ns#" xmlns:rdf="http://www.w3.org/1999/02/22-rdf-syntax-ns#" xmlns:svg="http://www.w3.org/2000/svg" xmlns="http://www.w3.org/2000/svg" xmlns:sodipodi="http://sodipodi.sourceforge.net/DTD/sodipodi-0.dtd" xmlns:inkscape="http://www.inkscape.org/namespaces/inkscape" viewBox="0 0 16 20" version="1.1" x="0px" y="0px"><g transform="translate(0,-1036.3622)"><path style="color:#000000;font-style:normal;font-variant:normal;font-weight:normal;font-stretch:normal;font-size:medium;line-height:normal;font-family:sans-serif;text-indent:0;text-align:start;text-decoration:none;text-decoration-line:none;text-decoration-style:solid;text-decoration-color:#000000;letter-spacing:normal;word-spacing:normal;text-transform:none;direction:ltr;block-progression:tb;writing-mode:lr-tb;baseline-shift:baseline;text-anchor:start;white-space:normal;clip-rule:nonzero;display:inline;overflow:visible;visibility:visible;opacity:1;isolation:auto;mix-blend-mode:normal;color-interpolation:sRGB;color-interpolation-filters:linearRGB;solid-color:#000000;solid-opacity:1;fill:#000000;fill-opacity:1;fill-rule:nonzero;stroke:none;stroke-width:1px;stroke-linecap:butt;stroke-linejoin:miter;stroke-miterlimit:4;stroke-dasharray:none;stroke-dashoffset:0;stroke-opacity:1;color-rendering:auto;image-rendering:auto;shape-rendering:auto;text-rendering:auto;enable-background:accumulate" d="M 12 2.4589844 L 12 3.9394531 C 11.246084 4.0097125 10.527702 4.3177634 9.8691406 4.7578125 C 8.890089 5.4117125 7.9915148 6.3432562 7.1074219 7.2851562 C 6.2233289 8.2270563 5.3547041 9.1803063 4.4960938 9.8789062 C 3.6374834 10.577606 2.8100419 11.001953 2 11.001953 L 2 12.001953 C 3.1501455 12.001953 4.1805283 11.42635 5.1269531 10.65625 C 6.0733779 9.88615 6.9600774 8.90185 7.8359375 7.96875 C 8.7117976 7.03565 9.5779385 6.1547437 10.423828 5.5898438 C 10.966458 5.2274659 11.481344 5.0136584 12 4.9492188 L 12 6.5429688 L 12.8125 5.8925781 L 14.550781 4.5039062 L 12 2.4589844 z M 2 4.0019531 L 2 5.0019531 C 3.2729479 5.0019531 4.6273988 6.1343781 6.0175781 7.5800781 L 6.7382812 6.8867188 C 5.3144157 5.4060188 3.8195961 4.0019531 2 4.0019531 z M 8.1738281 8.40625 L 7.4511719 9.0976562 C 8.2842078 9.9690562 9.1352769 10.799747 10.0625 11.373047 C 10.664473 11.74518 11.319126 11.985177 12 12.048828 L 12 13.542969 L 12.8125 12.892578 L 14.550781 11.503906 L 12 9.4589844 L 12 11.054688 C 11.535619 10.99644 11.073057 10.821423 10.587891 10.523438 C 9.7997007 10.036137 8.9896127 9.25955 8.1738281 8.40625 z " transform="translate(0,1036.3622)"/></g><text x="0" y="31" fill="#000000" font-size="5px" font-weight="bold" font-family="'Helvetica Neue', Helvetica, Arial-Unicode, Arial, Sans-serif">Created by Chameleon Design</text><text x="0" y="36" fill="#000000" font-size="5px" font-weight="bold" font-family="'Helvetica Neue', Helvetica, Arial-Unicode, Arial, Sans-serif">from the Noun Project</text></svg>