<svg xmlns="http://www.w3.org/2000/svg" xmlns:xlink="http://www.w3.org/1999/xlink" version="1.1" x="0px" y="0px" viewBox="0 0 100 125" style="enable-background:new 0 0 100 100;" xml:space="preserve"><style type="text/css">
	.st0{fill-rule:evenodd;clip-rule:evenodd;}
</style><g><path class="st0" d="M56,17.1198l-0.0405-0.6965l-0.1212-0.6872l-0.2001-0.6684l-0.2764-0.6407l-0.3488-0.6042l-0.4167-0.5597   l-0.4788-0.5075l-0.5345-0.4485L53,11.9237l-0.6235-0.3132l-0.6556-0.2386l-0.679-0.1609l-0.693-0.081h-0.6977l-0.693,0.081   l-0.679,0.1609l-0.6556,0.2386L47,11.9237l-0.5829,0.3834l-0.5345,0.4485l-0.4788,0.5075l-0.4167,0.5597l-0.3489,0.6042   l-0.2763,0.6407l-0.2001,0.6684l-0.1212,0.6872L44,17.1198l0.0406,0.6966l0.1212,0.6871l0.2001,0.6685l0.2763,0.6406l0.3489,0.6043   l0.4167,0.5597l0.4788,0.5075l0.5345,0.4485L47,22.3161l0.6236,0.3131l0.6556,0.2387l0.679,0.1609l0.693,0.081h0.6977l0.693-0.081   l0.679-0.1609l0.6556-0.2387L53,22.3161l0.583-0.3834l0.5345-0.4485l0.4788-0.5075l0.4167-0.5597l0.3488-0.6043l0.2764-0.6406   l0.2001-0.6685l0.1212-0.6871L56,17.1198 M58,17.1198l-0.041,0.8094l-0.1227,0.801l-0.2031,0.7845l-0.2815,0.76l-0.3569,0.7276   L56.5662,21.69l-0.4961,0.6408l-0.5583,0.5874l-0.6149,0.5279l-0.6651,0.4629l-0.7086,0.3933l-0.7447,0.3196l-0.7732,0.2426   l-0.7938,0.1631l-0.8063,0.082h-0.8103l-0.8063-0.082l-0.7938-0.1631l-0.7732-0.2426l-0.7447-0.3196l-0.7086-0.3933l-0.6651-0.4629   l-0.6149-0.5279L43.93,22.3308L43.4339,21.69l-0.4286-0.6877l-0.3569-0.7276l-0.2815-0.76l-0.2031-0.7845l-0.1227-0.801L42,17.1198   l0.0411-0.8093l0.1227-0.801l0.2031-0.7846l0.2815-0.7599l0.3569-0.7276l0.4286-0.6877L43.93,11.909l0.5583-0.5874l0.6149-0.5279   l0.6651-0.4629l0.7086-0.3933l0.7447-0.3196l0.7732-0.2426l0.7938-0.1631l0.8063-0.082h0.8103l0.8063,0.082l0.7938,0.1631   l0.7732,0.2426l0.7447,0.3196l0.7086,0.3933l0.6651,0.4629l0.6149,0.5279l0.5583,0.5874l0.4961,0.6408l0.4286,0.6877l0.3569,0.7276   l0.2815,0.7599l0.2031,0.7846l0.1227,0.801L58,17.1198"/><polyline class="st0" points="62.0528,32.9865 51.4542,54.1836 51.3951,54.3468 51.375,54.5191 51.375,87.3699 51.4118,87.6017    51.5183,87.8108 51.6842,87.9767 51.8933,88.0832 52.125,88.1199 57.5,88.1199 57.7318,88.1566 57.9409,88.2632 58.1068,88.4291    58.2133,88.6382 58.25,88.8699 58.25,90.1199 58.2133,90.3517 58.1068,90.5607 57.9409,90.7267 57.7318,90.8331 57.5,90.8699    42.5,90.8699 42.2683,90.8331 42.0592,90.7267 41.8933,90.5607 41.7868,90.3517 41.75,90.1199 41.75,88.8699 41.7868,88.6382    41.8933,88.4291 42.0592,88.2632 42.2683,88.1566 42.5,88.1199 47.875,88.1199 48.1068,88.0832 48.3159,87.9767 48.4818,87.8108    48.5883,87.6017 48.625,87.3699 48.625,54.5191 48.605,54.3468 48.5459,54.1836 37.9473,32.9865 37.8315,32.8356 37.6677,32.739    37.4798,32.7104 37.2947,32.7541 37.1394,32.8637 37.0362,33.0235 37,33.2101 37,60.1199 36.9633,60.3516 36.8568,60.5608    36.6909,60.7267 36.4818,60.8332 36.25,60.8698 35,60.8698 34.7683,60.8332 34.5592,60.7267 34.3933,60.5608 34.2868,60.3516    34.25,60.1199 34.25,30.0331 34.2898,29.589 34.4077,29.1593 34.6001,28.7572 34.8609,28.3956 35.1817,28.0861 35.5523,27.8386    35.961,27.6607 36.3949,27.5583 36.84,27.5346 37.2822,27.5903 37.7075,27.7236 38.1024,27.9303 38.4543,28.2039 38.752,28.5357    38.9861,28.9149 49.3292,49.6013 49.4668,49.7932 49.6574,49.9329 49.8819,50.0065 50.1182,50.0065 50.3427,49.9329    50.5332,49.7932 50.6709,49.6013 61.014,28.9149 61.2481,28.5357 61.5458,28.2039 61.8977,27.9303 62.2926,27.7236    62.7179,27.5903 63.1601,27.5346 63.6052,27.5583 64.039,27.6607 64.4478,27.8386 64.8184,28.0861 65.1392,28.3956 65.4,28.7572    65.5924,29.1593 65.7103,29.589 65.75,30.0331 65.75,60.1199 65.7133,60.3516 65.6068,60.5608 65.4409,60.7267 65.2318,60.8332    65,60.8698 63.75,60.8698 63.5183,60.8332 63.3092,60.7267 63.1433,60.5608 63.0368,60.3516 63,60.1199 63,33.2101    62.9639,33.0235 62.8607,32.8637 62.7053,32.7541 62.5203,32.7104 62.3324,32.739 62.1686,32.8356 62.0528,32.9865  "/></g><text x="0" y="115" fill="#000000" font-size="5px" font-weight="bold" font-family="'Helvetica Neue', Helvetica, Arial-Unicode, Arial, Sans-serif">Created by Tresnatiq</text><text x="0" y="120" fill="#000000" font-size="5px" font-weight="bold" font-family="'Helvetica Neue', Helvetica, Arial-Unicode, Arial, Sans-serif">from the Noun Project</text></svg>