<svg xmlns="http://www.w3.org/2000/svg" xmlns:xlink="http://www.w3.org/1999/xlink" version="1.1" x="0px" y="0px" viewBox="0 0 100 125" enable-background="new 0 0 100 100" xml:space="preserve"><path fill="#000000" d="M71.1,79.1H28.9c-3.8,0-6.9-3.1-6.9-6.9V29.8c0-3.8,3.1-6.9,6.9-6.9h42.3c3.8,0,6.9,3.1,6.9,6.9v42.3  C78.1,75.9,75,79.1,71.1,79.1z M28.9,25.1c-2.6,0-4.7,2.1-4.7,4.7v42.3c0,2.6,2.1,4.7,4.7,4.7h42.3c2.6,0,4.7-2.1,4.7-4.7V29.8  c0-2.6-2.1-4.7-4.7-4.7H28.9z"/><text x="0" y="115" fill="#000000" font-size="5px" font-weight="bold" font-family="'Helvetica Neue', Helvetica, Arial-Unicode, Arial, Sans-serif">Created by NAS</text><text x="0" y="120" fill="#000000" font-size="5px" font-weight="bold" font-family="'Helvetica Neue', Helvetica, Arial-Unicode, Arial, Sans-serif">from the Noun Project</text></svg>