<svg xmlns="http://www.w3.org/2000/svg" xmlns:xlink="http://www.w3.org/1999/xlink" version="1.1" x="0px" y="0px" viewBox="0 0 100 125" enable-background="new 0 0 100 100" xml:space="preserve"><path d="M94.958,69.84l-0.006-39.981c0-0.408-0.229-0.78-0.595-0.963c-0.364-0.181-0.799-0.143-1.128,0.101L68.033,47.845V29.14  c0-3.439-2.8-6.239-6.239-6.239h-50.55C7.8,22.901,5,25.701,5,29.14v41.723c0,3.437,2.8,6.235,6.244,6.235h50.55  c3.439,0,6.239-2.798,6.239-6.235V52.148l25.202,18.857c0.191,0.143,0.417,0.214,0.646,0.214c0.015,0,0.032,0,0.042,0  c0.595,0,1.077-0.484,1.077-1.077C95,70.038,94.985,69.937,94.958,69.84z M65.879,70.863c0,2.25-1.833,4.081-4.085,4.081h-50.55  c-2.255,0-4.089-1.831-4.089-4.081V29.14c0-2.251,1.834-4.085,4.089-4.085h50.55c2.253,0,4.085,1.834,4.085,4.085V70.863z   M68.755,49.995l24.042-17.986l0.006,35.985L68.755,49.995z"/><text x="0" y="115" fill="#000000" font-size="5px" font-weight="bold" font-family="'Helvetica Neue', Helvetica, Arial-Unicode, Arial, Sans-serif">Created by Maxim David</text><text x="0" y="120" fill="#000000" font-size="5px" font-weight="bold" font-family="'Helvetica Neue', Helvetica, Arial-Unicode, Arial, Sans-serif">from the Noun Project</text></svg>